<svg xmlns="http://www.w3.org/2000/svg" viewBox="0 0 448 512" fill="white">
  <path d="M224.1 141c-63.6 0-115.1 51.5-115.1 115.1s51.5 115.1 115.1 115.1 115.1-51.5 115.1-115.1S287.7 141 224.1 141zm0 190.6c-41.7 0-75.5-33.8-75.5-75.5s33.8-75.5 75.5-75.5 75.5 33.8 75.5 75.5-33.8 75.5-75.5 75.5zm146.4-194.3c0 14.9-12 26.9-26.9 26.9s-26.9-12-26.9-26.9 12-26.9 26.9-26.9 26.9 12 26.9 26.9zM398.8 80c-14.7-38.5-45.3-69.1-83.8-83.8C279.6-10.6 224-10.6 224-10.6s-55.6 0-91 6.8c-38.5 14.7-69.1 45.3-83.8 83.8C32.4 115.4 32.4 171 32.4 171s0 55.6 6.8 91c14.7 38.5 45.3 69.1 83.8 83.8 35.4 6.8 91 6.8 91 6.8s55.6 0 91-6.8c38.5-14.7 69.1-45.3 83.8-83.8 6.8-35.4 6.8-91 6.8-91s0-55.6-6.8-91zM224 338c-62.5 0-113-50.5-113-113s50.5-113 113-113 113 50.5 113 113-50.5 113-113 113z"></path>
</svg>